<svg xmlns="http://www.w3.org/2000/svg" width="166" height="166" viewBox="0 0 166 166" fill="none"><path d="M17.259 21.629C23.249 21.629 28.041 16.857 28.041 10.8924C28.041 4.9279 23.249 0.156189 17.259 0.156189C11.2687 0.156189 6.47656 4.9279 6.47656 10.8924C6.47656 16.857 11.2687 21.629 17.259 21.629Z" fill="#FCBC32"/><path d="M21.063 70.155C30.248 67.968 36.038 58.822 33.842 49.676C31.646 40.531 22.461 34.765 13.276 36.952C4.09097 39.139 -1.69943 48.285 0.496972 57.43C2.69327 66.775 11.8782 72.342 21.063 70.155Z" fill="#FCBC32"/><path d="M21.063 155.448C30.248 153.26 36.038 144.115 33.842 134.969C31.646 125.824 22.461 120.058 13.276 122.245C4.09097 124.432 -1.69943 133.578 0.496972 142.723C2.69327 151.869 11.8782 157.635 21.063 155.448Z" fill="#FCBC32"/><path d="M27.869 96.185C27.869 90.221 23.077 85.449 17.087 85.449C11.0968 85.449 6.30469 90.221 6.30469 96.185C6.30469 102.15 11.0968 106.922 17.087 106.922C23.077 106.922 27.869 102.15 27.869 96.185Z" fill="#FCBC32"/><path d="M82.9769 95C73.5919 95 65.8049 102.555 65.8049 112.098C65.8049 121.443 73.3919 129.197 82.9769 129.197C92.3609 129.197 100.148 121.641 100.148 112.098C99.9479 102.555 92.3609 95 82.9769 95Z" fill="#FCBC32"/><path d="M82.9781 143.902C76.9881 143.902 72.1951 148.674 72.1951 154.639C72.1951 160.603 76.9881 165.375 82.9781 165.375C88.9681 165.375 93.7601 160.603 93.7601 154.639C93.5601 148.674 88.7681 143.902 82.9781 143.902Z" fill="#FCBC32"/><path d="M82.9781 80.082C88.9681 80.082 93.7601 75.31 93.7601 69.345C93.7601 63.381 88.9681 58.609 82.9781 58.609C76.9881 58.609 72.1951 63.381 72.1951 69.345C72.1951 75.31 76.9881 80.082 82.9781 80.082Z" fill="#FCBC32"/><path d="M84.5601 37.345C90.3501 36.351 94.3431 30.983 93.3451 25.217C92.3471 19.451 86.9561 15.475 81.1651 16.469C75.3751 17.463 71.3811 22.831 72.3801 28.597C73.3781 34.363 78.7691 38.14 84.5601 37.345Z" fill="#FCBC32"/><path d="M160.649 65.579C167.238 59.018 167.238 48.083 160.649 41.522C154.06 34.961 143.078 34.961 136.489 41.522C129.9 48.083 129.9 59.018 136.489 65.579C143.078 72.339 154.06 72.339 160.649 65.579Z" fill="#FCBC32"/><path d="M148.665 21.629C154.655 21.629 159.447 16.857 159.447 10.8924C159.447 4.9279 154.655 0.156189 148.665 0.156189C142.675 0.156189 137.883 4.9279 137.883 10.8924C137.883 16.857 142.675 21.629 148.665 21.629Z" fill="#FCBC32"/><path d="M148.665 85.648C142.675 85.648 137.883 90.42 137.883 96.385C137.883 102.349 142.675 107.121 148.665 107.121C154.655 107.121 159.447 102.349 159.447 96.385C159.248 90.42 154.455 85.648 148.665 85.648Z" fill="#FCBC32"/><path d="M148.665 128.203C142.675 128.203 137.883 132.975 137.883 138.939C137.883 144.904 142.675 149.675 148.665 149.675C154.655 149.675 159.447 144.904 159.447 138.939C159.248 132.975 154.455 128.203 148.665 128.203Z" fill="#FCBC32"/></svg>