<svg xmlns="http://www.w3.org/2000/svg" fill="none" viewBox="0 0 44.6831 44.6831">
        <rect width="44.6831" height="44.6831" fill="#fff" rx="20"></rect>
        <path fill="url(#a)" d="M3.43716 0C1.53887 0 0 1.53887 0 3.43716V27.6253l3.9708-5.6709c.67987-.9709 1.6715-1.5939 2.74491-1.8283 1.803-.508 3.80729.143 4.94259 1.7642L20.1866 34.07c.6842.9772 2.1313.9772 2.8155 0l9.5009-13.5687c1.4359-2.0506 4.2623-2.549 6.3129-1.1131 2.0507 1.4359 2.5491 4.2623 1.1132 6.3129l-13.2914 18.982H41.246c1.8983 0 3.4371-1.5388 3.4371-3.4371V3.43716C44.6831 1.53887 43.1443 0 41.246 0H3.43716Z"></path>
        <path fill="url(#b)" d="M16.551 44.6831 9.24475 34.2488c-.68419-.9772-2.13137-.9772-2.81556 0L.400792 42.8582c.577697 1.0857 1.720708 1.8249 3.036368 1.8249H16.551Z"></path>
        <defs>
          <linearGradient id="a" x1="44.6831" x2="-3.02294" y1="48.7538" y2="6.03623" gradientUnits="userSpaceOnUse">
            <stop stop-color="#0172FC"></stop>
            <stop offset="1" stop-color="#01FFD1"></stop>
          </linearGradient>
          <linearGradient id="b" x1="44.6831" x2="-3.02294" y1="48.7538" y2="6.03623" gradientUnits="userSpaceOnUse">
            <stop stop-color="#0172FC"></stop>
            <stop offset="1" stop-color="#01FFD1"></stop>
          </linearGradient>
        </defs>
      </svg>
