<svg width="48" height="48" viewBox="0 0 48 48" fill="none" xmlns="http://www.w3.org/2000/svg">
<path d="M28.7693 21.2742C28.5189 21.4778 28.1546 21.3194 28.1546 20.9801V19.1931V8.38025C28.1546 8.06355 27.7676 7.88258 27.54 8.08617L12.3784 20.867C12.128 21.0706 11.7637 20.9122 11.7637 20.5729V11.8412C11.7637 11.5924 11.5589 11.3888 11.3084 11.3888H3.9553C3.70489 11.3888 3.5 11.5924 3.5 11.8412V39.19C3.5 39.5066 3.88701 39.6876 4.11466 39.484L19.2535 26.7032C19.5039 26.4996 19.8681 26.658 19.8681 26.9973V39.6198C19.8681 39.9364 20.2551 40.1174 20.4828 39.9138L35.6216 27.133C35.872 26.9294 36.2363 27.0878 36.2363 27.4271V36.1588C36.2363 36.4076 36.4411 36.6112 36.6916 36.6112H44.0447C44.2951 36.6112 44.5 36.4076 44.5 36.1588V8.78742C44.5 8.47073 44.113 8.28976 43.8853 8.49335L28.7693 21.2742Z" fill="white"/>
</svg>
