<svg xmlns="http://www.w3.org/2000/svg" xml:space="preserve" viewBox="517.9 551 464.22 464.23"><path fill="#eb048e" d="M860 673.1 712.8 820.2H517.9l147.2-147.1z"/><path fill="#1d1d9e" d="M860 673.1v147.1H712.8z"/><path fill="#eb048e" d="M860 820.2v46.3l-148.7 148.6h-.7V822.5l2.2-2.3z"/><path fill="#1d1d9e" d="m712.8 820.2-194.9 194.9V820.2zM860 866.5v147.9l-.8.8H711.3z"/><path fill="#2cf0ff" d="M787.2 551 665.1 673.1H517.9L640 551z"/><path fill="#eb048e" d="m982.1 551-95.6 95.6H691.6l95.6-95.6z"/><path fill="#1d1d9e" d="M665.1 673.1 517.9 820.2V673.1z"/><path fill="#2cf0ff" d="M710.6 822.5v192.6H517.9zM860 673.1 982.1 551v341.3L860 1014.4z"/></svg>