<svg width="32" height="32" viewBox="3701.61 2032.23 997.66 834.06" fill="none" xmlns="http://www.w3.org/2000/svg">
<path d="M3885.98 2751.18C3893.49 2764.18 3910.26 2768.67 3923.25 2761.17C4018.95 2705.92 4083.36 2618.32 4111.69 2520.06C4172.55 2546.35 4227.06 2588.92 4267.25 2647.62L4069.96 2761.53C4056.96 2769.04 4052.47 2785.81 4059.97 2798.8C4067.47 2811.8 4084.24 2816.29 4097.24 2808.79L4319.34 2680.56C4468.2 2594.61 4575.37 2455.56 4619.81 2289.71L4647.27 2187.21C4649.27 2179.76 4648.22 2172.49 4644.81 2166.58C4641.4 2160.67 4635.62 2156.13 4628.17 2154.13L4525.68 2126.67C4359.83 2082.23 4185.82 2105.51 4036.96 2191.45L3814.86 2319.69C3801.86 2327.19 3797.37 2343.96 3804.87 2356.96C3812.37 2369.95 3829.14 2374.45 3842.14 2366.94L4039.43 2253.03C4069.5 2316.01 4079.79 2385.68 4072.13 2451.54C3972.86 2426.94 3864.8 2438.92 3769.1 2494.17C3756.11 2501.68 3751.61 2518.45 3759.12 2531.44C3766.62 2544.44 3783.39 2548.93 3796.38 2541.43C3880.26 2493 3974.97 2482.43 4061.88 2504.71C4037.73 2591.12 3981.21 2667.85 3897.33 2716.28C3882.97 2721.42 3878.48 2738.19 3885.98 2751.18ZM4587.42 2198.14L4566.95 2274.54C4528.5 2418.03 4439.87 2540.09 4313.83 2619.16C4266.13 2547.46 4198.21 2495.31 4123.13 2466.2C4135.46 2386.62 4124.25 2301.73 4086.01 2224.57C4217.01 2156.81 4367.53 2139.22 4511.02 2177.67L4587.42 2198.14Z" fill="#E10600"/>
</svg>
